<svg width="141" height="28" viewBox="0 0 141 28" fill="none" xmlns="http://www.w3.org/2000/svg">
<g clip-path="url(#clip0_54_243)">
<path fill-rule="evenodd" clip-rule="evenodd" d="M17.8384 8.17971C16.6905 7.41055 15.3409 7 13.9604 7V0C16.7215 0 19.4206 0.821086 21.7164 2.35943C24.0122 3.89776 25.8015 6.08427 26.8581 8.64241C27.9147 11.2006 28.1912 14.0155 27.6525 16.7313C27.1139 19.447 25.7843 21.9416 23.8319 23.8995C21.8795 25.8574 19.392 27.1908 16.6839 27.731C13.9759 28.2712 11.1689 27.9939 8.61796 26.9343C6.06705 25.8747 3.88673 24.0803 2.35275 21.778C0.818763 19.4757 0 16.7689 0 14H6.9802C6.9802 15.3845 7.38959 16.7378 8.15657 17.889C8.92355 19.0401 10.0137 19.9373 11.2892 20.4672C12.5646 20.997 13.9681 21.1356 15.3222 20.8655C16.6762 20.5954 17.9199 19.9287 18.8962 18.9498C19.8723 17.9707 20.5371 16.7235 20.8064 15.3656C21.0758 14.0078 20.9376 12.6003 20.4093 11.3212C19.8809 10.0421 18.9863 8.94887 17.8384 8.17971Z" fill="#007DFC"/>
<path fill-rule="evenodd" clip-rule="evenodd" d="M6.98019 3.69945e-06C6.98019 0.919257 6.79965 1.82951 6.44886 2.67879C6.09807 3.52807 5.58392 4.29974 4.93574 4.94975C4.28758 5.59977 3.51809 6.11538 2.67121 6.46716C1.82433 6.81894 0.91665 7 3.05111e-07 7L0 14C1.8333 14 3.64866 13.6379 5.34242 12.9343C7.03618 12.2308 8.57517 11.1995 9.87146 9.89947C11.1678 8.5995 12.1961 7.05614 12.8977 5.35757C13.5993 3.65901 13.9604 1.8385 13.9604 0L6.98019 3.69945e-06Z" fill="#007DFC"/>
<path d="M87.6846 10.1167H84.2978V20.9054H87.6846V10.1167Z" fill="#007DFC"/>
<path d="M84.6747 8.09662C85.0286 8.4518 85.4712 8.62939 86.0024 8.62939C86.5336 8.62939 86.9691 8.4518 87.3084 8.09662C87.6483 7.72667 87.8179 7.28266 87.8179 6.7647C87.8179 6.23194 87.6483 5.78794 87.3084 5.43278C86.9691 5.07758 86.5336 4.9 86.0024 4.9C85.4712 4.9 85.0286 5.07758 84.6747 5.43278C84.3348 5.78794 84.1652 6.23194 84.1652 6.7647C84.1652 7.28266 84.3348 7.72667 84.6747 8.09662Z" fill="#007DFC"/>
<path d="M35.7081 20.9054V5.23298H39.1835V17.8419H46.1121V20.9054H35.7081Z" fill="#007DFC"/>
<path fill-rule="evenodd" clip-rule="evenodd" d="M52.3707 21.1495C51.2639 21.1495 50.2604 20.9054 49.3602 20.417C48.4747 19.9138 47.7738 19.2331 47.2572 18.3747C46.7408 17.5163 46.4825 16.5544 46.4825 15.4888C46.4825 14.4233 46.7408 13.4688 47.2572 12.6252C47.7738 11.7816 48.4747 11.1157 49.3602 10.6273C50.2456 10.1241 51.2491 9.87252 52.3707 9.87252C53.4922 9.87252 54.4957 10.1168 55.3811 10.6051C56.2666 11.0935 56.9676 11.7669 57.4841 12.6252C58.0006 13.4688 58.2589 14.4233 58.2589 15.4888C58.2589 16.5544 58.0006 17.5163 57.4841 18.3747C56.9676 19.2331 56.2666 19.9138 55.3811 20.417C54.4957 20.9054 53.4922 21.1495 52.3707 21.1495ZM52.3707 18.0639C52.8577 18.0639 53.2856 17.9603 53.6546 17.7531C54.0235 17.5312 54.3039 17.2278 54.4957 16.843C54.7023 16.4434 54.8056 15.992 54.8056 15.4888C54.8056 14.9857 54.7023 14.5491 54.4957 14.1791C54.2891 13.7943 54.0014 13.4984 53.6324 13.2912C53.2782 13.0691 52.8577 12.9582 52.3707 12.9582C51.8984 12.9582 51.4779 13.0691 51.1089 13.2912C50.74 13.4984 50.4522 13.7943 50.2456 14.1791C50.039 14.5639 49.9358 15.0079 49.9358 15.511C49.9358 15.9994 50.039 16.4434 50.2456 16.843C50.4522 17.2278 50.74 17.5312 51.1089 17.7531C51.4779 17.9603 51.8984 18.0639 52.3707 18.0639Z" fill="#007DFC"/>
<path fill-rule="evenodd" clip-rule="evenodd" d="M60.9412 25.1231C61.8413 25.5375 62.8817 25.7447 64.0624 25.7447C65.2134 25.7447 66.2391 25.5153 67.1392 25.0565C68.0395 24.5977 68.7477 23.9614 69.2643 23.1475C69.7807 22.3335 70.0394 21.3716 70.0394 20.2616V10.1168H66.7186V10.8416C66.4716 10.6331 66.1912 10.4581 65.8775 10.3165C65.3019 10.0353 64.6452 9.89471 63.9074 9.89471C62.9186 9.89471 62.0405 10.1315 61.2732 10.6051C60.5057 11.0639 59.9008 11.7002 59.458 12.5142C59.0152 13.3134 58.794 14.2161 58.794 15.2225C58.794 16.214 59.0152 17.1168 59.458 17.9307C59.9008 18.7447 60.5057 19.3885 61.2732 19.862C62.0405 20.3356 62.9186 20.5724 63.9074 20.5724C64.6305 20.5724 65.2872 20.4318 65.8775 20.1506C66.1634 20.0144 66.4217 19.8539 66.6522 19.669V20.3504C66.6522 21.1051 66.4087 21.6897 65.9217 22.1041C65.4495 22.5185 64.7928 22.7256 63.9516 22.7256C63.2728 22.7256 62.6899 22.6073 62.2029 22.3705C61.7307 22.1337 61.3027 21.7859 60.919 21.3271L58.8382 23.4138C59.3547 24.1538 60.0557 24.7236 60.9412 25.1231ZM65.7668 17.2425C65.4273 17.4497 65.0216 17.5533 64.5493 17.5533C64.0771 17.5533 63.6639 17.4497 63.3097 17.2425C62.9702 17.0353 62.7046 16.7542 62.5128 16.399C62.3209 16.029 62.225 15.6368 62.225 15.2225C62.225 14.7785 62.3209 14.3789 62.5128 14.0237C62.7046 13.6686 62.9776 13.3874 63.3318 13.1802C63.686 12.973 64.0918 12.8694 64.5493 12.8694C65.0216 12.8694 65.4273 12.973 65.7668 13.1802C66.121 13.3874 66.3865 13.6686 66.5637 14.0237C66.7555 14.3789 66.8514 14.7785 66.8514 15.2225C66.8514 15.6664 66.7555 16.066 66.5637 16.4212C66.3865 16.7616 66.121 17.0353 65.7668 17.2425Z" fill="#007DFC"/>
<path fill-rule="evenodd" clip-rule="evenodd" d="M77.1668 21.1495C76.0598 21.1495 75.056 20.9054 74.1563 20.417C73.2705 19.9138 72.5697 19.2331 72.0531 18.3747C71.5366 17.5163 71.2783 16.5544 71.2783 15.4888C71.2783 14.4233 71.5366 13.4688 72.0531 12.6252C72.5697 11.7816 73.2705 11.1157 74.1563 10.6273C75.0413 10.1241 76.0451 9.87252 77.1668 9.87252C78.2878 9.87252 79.2916 10.1168 80.1767 10.6051C81.0625 11.0935 81.7633 11.7669 82.2798 12.6252C82.7963 13.4688 83.0546 14.4233 83.0546 15.4888C83.0546 16.5544 82.7963 17.5163 82.2798 18.3747C81.7633 19.2331 81.0625 19.9138 80.1767 20.417C79.2916 20.9054 78.2878 21.1495 77.1668 21.1495ZM77.1668 18.0639C77.6533 18.0639 78.0812 17.9603 78.4505 17.7531C78.819 17.5312 79.0996 17.2278 79.2916 16.843C79.4982 16.4434 79.6015 15.992 79.6015 15.4888C79.6015 14.9857 79.4982 14.5491 79.2916 14.1791C79.085 13.7943 78.7974 13.4984 78.4281 13.2912C78.0742 13.0691 77.6533 12.9582 77.1668 12.9582C76.6943 12.9582 76.2733 13.0691 75.9048 13.2912C75.5355 13.4984 75.248 13.7943 75.0413 14.1791C74.8347 14.5639 74.7314 15.0079 74.7314 15.511C74.7314 15.9994 74.8347 16.4434 75.0413 16.843C75.248 17.2278 75.5355 17.5312 75.9048 17.7531C76.2733 17.9603 76.6943 18.0639 77.1668 18.0639Z" fill="#007DFC"/>
<path fill-rule="evenodd" clip-rule="evenodd" d="M95.8249 21.1273C95.1025 21.1273 94.438 20.9868 93.8328 20.7056C93.5145 20.5576 93.2269 20.3809 92.97 20.1755V25.4561H89.6272V10.1168H93.014V10.8613C93.2597 10.6598 93.5326 10.4856 93.8328 10.3387C94.438 10.0427 95.1025 9.89471 95.8249 9.89471C96.8433 9.89471 97.7438 10.1389 98.5256 10.6273C99.3227 11.1157 99.9425 11.7816 100.385 12.6252C100.843 13.4688 101.071 14.4307 101.071 15.511C101.071 16.5914 100.843 17.5533 100.385 18.3969C99.9425 19.2405 99.3227 19.9064 98.5256 20.3948C97.7438 20.8832 96.8433 21.1273 95.8249 21.1273ZM95.2058 18.0639C95.6923 18.0639 96.1132 17.9529 96.4671 17.7309C96.8364 17.509 97.1239 17.2055 97.3306 16.8208C97.5372 16.436 97.6405 15.9994 97.6405 15.511C97.6405 15.0079 97.5372 14.5639 97.3306 14.1791C97.1239 13.7943 96.8364 13.4984 96.4671 13.2912C96.1132 13.0691 95.7 12.9582 95.2274 12.9582C94.7556 12.9582 94.3346 13.0691 93.9661 13.2912C93.6115 13.4984 93.3316 13.7943 93.125 14.1791C92.9184 14.5639 92.8151 15.0079 92.8151 15.511C92.8151 15.9994 92.9107 16.436 93.1026 16.8208C93.3093 17.2055 93.5968 17.509 93.9661 17.7309C94.3346 17.9529 94.7479 18.0639 95.2058 18.0639Z" fill="#007DFC"/>
<path d="M104.386 20.9276C105.006 21.0904 105.633 21.1717 106.267 21.1717C107.61 21.1717 108.673 20.861 109.455 20.2394C110.252 19.6179 110.65 18.7817 110.65 17.7309C110.65 17.0502 110.525 16.5026 110.274 16.0882C110.023 15.6591 109.699 15.3187 109.3 15.0671C108.902 14.8155 108.481 14.6157 108.038 14.4677C107.596 14.3197 107.175 14.1939 106.777 14.0903C106.378 13.9867 106.054 13.8683 105.802 13.7351C105.552 13.6019 105.426 13.4243 105.426 13.2024C105.426 12.9952 105.522 12.8398 105.714 12.7362C105.906 12.6178 106.193 12.5586 106.577 12.5586C106.976 12.5586 107.381 12.64 107.795 12.8028C108.222 12.9655 108.606 13.2468 108.946 13.6464L110.871 11.6929C110.385 11.0713 109.75 10.6051 108.968 10.2943C108.201 9.96877 107.36 9.80595 106.445 9.80595C105.574 9.80595 104.814 9.95393 104.165 10.2499C103.515 10.5459 103.013 10.9529 102.659 11.4708C102.305 11.974 102.128 12.5734 102.128 13.269C102.128 13.9201 102.254 14.4603 102.504 14.8895C102.755 15.3038 103.08 15.6295 103.478 15.8662C103.877 16.103 104.297 16.288 104.74 16.4212C105.183 16.5544 105.603 16.6802 106.002 16.7986C106.4 16.9022 106.725 17.028 106.976 17.176C107.242 17.3092 107.374 17.509 107.374 17.7753C107.374 17.9825 107.263 18.1453 107.042 18.2637C106.835 18.3821 106.533 18.4413 106.135 18.4413C105.559 18.4413 105.028 18.3377 104.541 18.1305C104.054 17.9085 103.633 17.6051 103.279 17.2204L101.353 19.1738C101.722 19.5734 102.165 19.9287 102.682 20.2394C103.213 20.5353 103.781 20.7647 104.386 20.9276Z" fill="#007DFC"/>
<path d="M116.826 21.1495C115.838 21.1495 114.96 20.9497 114.193 20.5502C113.439 20.1358 112.85 19.5734 112.422 18.863C111.993 18.1379 111.78 17.3092 111.78 16.3768V10.1167H115.166V16.3324C115.166 16.7023 115.225 17.0206 115.344 17.2869C115.476 17.5533 115.668 17.7605 115.919 17.9085C116.17 18.0565 116.472 18.1305 116.826 18.1305C117.328 18.1305 117.727 17.9751 118.022 17.6643C118.317 17.3387 118.464 16.8948 118.464 16.3324V10.1167H121.851V16.3546C121.851 17.3018 121.638 18.1379 121.209 18.863C120.781 19.5734 120.191 20.1358 119.438 20.5502C118.686 20.9497 117.815 21.1495 116.826 21.1495Z" fill="#007DFC"/>
<path d="M126.922 10.1168H123.535V20.9054H126.922V14.6009C126.922 14.2309 126.996 13.9201 127.143 13.6686C127.306 13.417 127.52 13.2245 127.785 13.0914C128.051 12.9434 128.354 12.8694 128.693 12.8694C129.18 12.8694 129.586 13.0248 129.91 13.3356C130.25 13.6315 130.42 14.0533 130.42 14.6009V20.9054H133.807V14.6009C133.807 14.2309 133.881 13.9201 134.028 13.6686C134.19 13.417 134.404 13.2245 134.67 13.0914C134.935 12.9434 135.238 12.8694 135.577 12.8694C136.065 12.8694 136.47 13.0248 136.795 13.3356C137.134 13.6315 137.304 14.0533 137.304 14.6009V20.9054H140.691V14.2235C140.691 13.3208 140.499 12.5512 140.115 11.9148C139.746 11.2636 139.237 10.7679 138.588 10.4276C137.953 10.0723 137.223 9.89471 136.396 9.89471C135.555 9.89471 134.795 10.0797 134.116 10.4497C133.675 10.6854 133.29 10.9897 132.96 11.3623C132.652 10.9725 132.278 10.6535 131.836 10.4053C131.246 10.065 130.575 9.89471 129.822 9.89471C129.025 9.89471 128.31 10.065 127.675 10.4053C127.399 10.5469 127.148 10.7165 126.922 10.9141V10.1168Z" fill="#007DFC"/>
</g>
<defs>
<clipPath id="clip0_54_243">
<rect width="141" height="28" fill="white"/>
</clipPath>
</defs>
</svg>
